# xmcd
#
# Track frame offsets:
#	150
#	23045
#	43258
#	64839
#	81425
#	96286
#	111087
#	129965
#	148431
#	171326
#	191539
#	213120
#	229706
#	244567
#	259368
#	278246
#
# Disc length: 3956 seconds
#
# Revision: 1
# Processed by: cddbd v1.5.2PL0 Copyright (c) Steve Scherf et al.
# Submitted via: audiograbber 1.83.01
#
DISCID=ec0f7210
DTITLE=Various Artist - CB60387M
DYEAR=2008
DGENRE=Karaoke
TTITLE0=Bentley, Dierks and Sarah Buxton - Sweet and Wild
TTITLE1=Johnson, Jamey - That Lonesome Song
TTITLE2=Swift, Taylor - Change
TTITLE3=One Flew South - My Kind Of Beautiful
TTITLE4=Owen, Jake - Don't Think I Can't Love You
TTITLE5=Lawson, Melissa - What If It All Goes Right
TTITLE6=Fowler, Kevin - Best Mistake I Ever Made
TTITLE7=Rascal Flatts - Here
TTITLE8=Bentley, Dierks and Sarah Buxton - Sweet and Wild w/vocals
TTITLE9=Johnson, Jamey - That Lonesome Song w/vocals
TTITLE10=Swift, Taylor - Change w/vocals
TTITLE11=One Flew South - My Kind Of Beautiful w/vocals
TTITLE12=Owen, Jake - Don't Think I Can't Love You w/vocals
TTITLE13=Lawson, Melissa - What If It All Goes Right w/vocals
TTITLE14=Fowler, Kevin - Best Mistake I Ever Made w/vocals
TTITLE15=Rascal Flatts - Here w/vocals
EXTD=
EXTT0=
EXTT1=
EXTT2=
EXTT3=
EXTT4=
EXTT5=
EXTT6=
EXTT7=
EXTT8=
EXTT9=
EXTT10=
EXTT11=
EXTT12=
EXTT13=
EXTT14=
EXTT15=
PLAYORDER=
